<?xml version="1.0" encoding="UTF-8"?>
<svg version="1.1" xmlns="http://www.w3.org/2000/svg" width="1250" height="1250">
<path d="M0 0 C3.32556735 1.23392525 6.14300599 3.29149545 9.06121826 5.27084351 C9.75008118 5.73165314 10.43894409 6.19246277 11.14868164 6.66723633 C13.35755859 8.14692563 15.56091382 9.63462031 17.76434326 11.12240601 C19.20020091 12.08515326 20.63639591 13.0473976 22.07293701 14.00912476 C29.65297407 19.09187114 37.19022823 24.23426812 44.703125 29.41558838 C53.92435862 35.76524227 63.22561102 41.99715008 72.51434326 48.24740601 C85.05662807 56.68693121 97.57786188 65.15251389 110.01434326 73.74740601 C110.03939941 72.81356079 110.06445557 71.87971558 110.090271 70.91757202 C110.18521254 67.46415412 110.28445584 64.01091641 110.38665771 60.55770874 C110.43006139 59.06101331 110.47173239 57.56426662 110.51165771 56.06747437 C110.56922942 53.92026288 110.63296042 51.77331079 110.69793701 49.62631226 C110.73459473 48.3328186 110.77125244 47.03932495 110.809021 45.70663452 C111.01434326 42.74740601 111.01434326 42.74740601 112.01434326 41.74740601 C114.15993153 41.65964995 116.30838747 41.64045382 118.45574951 41.64974976 C119.76092529 41.65297241 121.06610107 41.65619507 122.41082764 41.65951538 C123.79950016 41.66787199 125.18817203 41.67633696 126.57684326 41.68490601 C127.96941982 41.68991935 129.36199808 41.69448254 130.75457764 41.69857788 C134.17454196 41.71041167 137.5944217 41.7268972 141.01434326 41.74740601 C140.99578278 42.38918793 140.97722229 43.03096985 140.95809937 43.69219971 C140.77780627 50.40936095 140.69708929 57.12263605 140.67254639 63.84213257 C140.65056516 66.34475982 140.6037134 68.84730285 140.53094482 71.34896851 C139.40768468 85.57714219 139.40768468 85.57714219 144.47064209 98.17758179 C147.29742056 100.49730498 150.4504304 102.04912375 153.74627686 103.59939575 C158.14423289 105.82547635 162.12453405 108.7428849 166.19793701 111.50521851 C168.03624727 112.71521524 169.87703646 113.92145332 171.72015381 115.12411499 C186.19559967 124.58841653 200.65839598 134.04611801 214.79437256 144.01278687 C222.5308786 149.45304663 230.38607935 154.70329741 238.26434326 159.93490601 C253.8495747 170.28463379 269.36750076 180.73213636 284.8727417 191.20126343 C285.76828262 191.80591934 286.66382355 192.41057526 287.58650208 193.03355408 C289.26492026 194.16696658 290.94318405 195.30060777 292.6212616 196.43452454 C293.37641556 196.94463577 294.13156952 197.45474701 294.90960693 197.98031616 C295.61112885 198.4564032 296.31265076 198.93249023 297.03543091 199.42300415 C298.31079392 200.27655036 299.59641205 201.11506321 300.89389038 201.93460083 C302.29838741 202.82507496 303.66211983 203.77939366 305.01434326 204.74740601 C305.01434326 205.40740601 305.01434326 206.06740601 305.01434326 206.74740601 C275.22897897 209.31986877 252.09591105 210.21650574 228.26043701 190.79428101 C227.02815099 189.7578335 225.79748744 188.71945355 224.56854248 187.67904663 C219.24319496 183.20677559 213.44511001 179.50101069 207.63934326 175.68490601 C205.37034822 174.15458433 203.11065782 172.61073086 200.85028076 171.06771851 C191.006131 164.37211935 181.13445637 157.71714009 171.26434326 151.05990601 C170.3231665 150.42507294 169.38198975 149.79023987 168.41229248 149.13616943 C158.17197284 142.23037705 147.92621787 135.33371976 137.63934326 128.49740601 C123.9579747 119.40516287 110.36352365 110.18428753 96.75648499 100.98139954 C87.4388301 94.68043108 78.11485479 88.38883652 68.78964233 82.09906006 C66.92054828 80.83831754 65.05154769 79.57743643 63.18264771 78.31640625 C51.54743349 70.46120087 51.54743349 70.46120087 39.87762451 62.65756226 C31.97523769 57.40065139 24.12329334 52.06891496 16.26434326 46.74740601 C14.68103569 45.67575336 13.09770253 44.60413852 11.51434326 43.53256226 C7.68071538 40.93794504 3.847432 38.34281964 0.01434326 35.74740601 C-6.21677905 39.0677329 -12.06631412 42.71960303 -17.86065674 46.74740601 C-19.77120635 48.06252922 -21.68276558 49.37618626 -23.59503174 50.68881226 C-24.13495758 51.05970474 -24.67488342 51.43059723 -25.23117065 51.81272888 C-33.52574223 57.50176303 -41.87433368 63.11147973 -50.21472168 68.73300171 C-53.06176298 70.65195087 -55.908265 72.57169785 -58.75469971 74.49154663 C-73.36115442 84.34030768 -73.36115442 84.34030768 -79.99346924 88.75131226 C-87.98757152 94.06917726 -95.93601838 99.45503358 -103.89306641 104.82809448 C-129.58542047 122.17552252 -129.58542047 122.17552252 -141.36065674 129.99740601 C-155.04223045 139.08933407 -168.63648044 148.31052725 -182.24351501 157.51341248 C-191.5611699 163.81438093 -200.88514521 170.10597549 -210.21035767 176.39575195 C-212.07945172 177.65649447 -213.94845231 178.91737558 -215.81735229 180.17840576 C-218.44745009 181.95303799 -221.07778604 183.72731623 -223.70831299 185.50131226 C-224.53188797 186.05673203 -225.35546295 186.61215179 -226.20399475 187.18440247 C-231.48247783 190.74155408 -236.773346 194.27877051 -242.08502197 197.78622437 C-244.91644105 199.6327552 -244.91644105 199.6327552 -247.10931396 201.50367737 C-253.87554469 206.84296036 -258.84390026 207.71360098 -267.33721924 207.43099976 C-268.4772641 207.42109512 -269.61730896 207.41119049 -270.79190063 207.40098572 C-274.3995139 207.36209517 -278.00397796 207.27431385 -281.61065674 207.18490601 C-284.07024792 207.14975973 -286.52988725 207.11782658 -288.98956299 207.08920288 C-294.98931824 207.01241663 -300.98726246 206.89558266 -306.98565674 206.74740601 C-302.97930709 202.4081406 -298.60265087 199.28349726 -293.66925049 196.06381226 C-292.86522797 195.5319783 -292.06120544 195.00014435 -291.2328186 194.45219421 C-289.51936637 193.31937099 -287.80425185 192.18905868 -286.08761597 191.06106567 C-281.61055231 188.11860995 -277.14601185 185.15727752 -272.68096924 182.19662476 C-271.81319351 181.62176331 -270.94541779 181.04690186 -270.05134583 180.45462036 C-264.23742815 176.59698216 -258.4802344 172.67231465 -252.79815674 168.62240601 C-243.37758975 161.93137719 -233.75298449 155.55481259 -224.12963867 149.16110229 C-211.02345506 140.45306637 -197.96238623 131.6803633 -184.92315674 122.87240601 C-173.46419865 115.13336762 -162.00208933 107.4007257 -150.48565674 99.74740601 C-138.10485418 91.51961415 -125.78685455 83.19974781 -113.46887207 74.8782959 C-103.38161965 68.06488269 -93.28503565 61.26651814 -83.14971924 54.52474976 C-81.84109924 53.65410385 -81.84109924 53.65410385 -80.50604248 52.76586914 C-76.39404869 50.03123999 -72.27984904 47.30000774 -68.16241455 44.57357788 C-60.13229667 39.2463824 -52.19741685 33.81258592 -44.34460449 28.22727966 C-36.54321527 22.69372434 -28.58289497 17.40536659 -20.61065674 12.12240601 C-19.12352955 11.13434751 -17.63654999 10.14606678 -16.14971924 9.15756226 C-13.46263044 7.37153454 -10.7747714 5.58668165 -8.08575439 3.80355835 C-1.97270505 -0.25094642 -1.97270505 -0.25094642 0 0 Z " fill="#CFAB5C" transform="translate(629.9856567382813,355.2525939941406)"/>
<path d="M0 0 C344.85 0 689.7 0 1045 0 C1045 4.95 1045 9.9 1045 15 C700.15 15 355.3 15 0 15 C0 10.05 0 5.1 0 0 Z " fill="#CFAB5C" transform="translate(104,806)"/>
<path d="M0 0 C8.91 0 17.82 0 27 0 C35.15967041 8.71759659 35.15967041 8.71759659 37.1796875 12.8046875 C39.96545706 18.08600117 43.32192659 22.69925571 46.9375 27.4375 C48.11591029 29.02800341 49.29168664 30.62046164 50.46484375 32.21484375 C51.04862793 33.00487793 51.63241211 33.79491211 52.23388672 34.60888672 C55.15956097 38.56991155 58.07954568 42.53512586 61 46.5 C64.60371622 51.39192016 68.20847644 56.28306135 71.81640625 61.171875 C72.44353516 62.02201172 73.07066406 62.87214844 73.71679688 63.74804688 C74.90907674 65.36424847 76.10175681 66.98015493 77.29492188 68.59570312 C77.83826172 69.33240234 78.38160156 70.06910156 78.94140625 70.828125 C79.41263916 71.4665332 79.88387207 72.10494141 80.36938477 72.76269531 C82.60181214 75.82572338 84.7969713 78.91575982 87 82 C87.33 54.94 87.66 27.88 88 0 C97.24 0 106.48 0 116 0 C116 42.57 116 85.14 116 129 C106.76 129 97.52 129 88 129 C79.20529197 119.71669708 79.20529197 119.71669708 77.0078125 115.41796875 C74.10553283 110.06336785 70.68924547 105.33385233 67 100.5 C65.83038001 98.91884705 64.6637127 97.33550569 63.5 95.75 C62.9225 94.96625 62.345 94.1825 61.75 93.375 C56.5 86.25 56.5 86.25 54.74731445 83.87133789 C53.58962185 82.3001952 52.43190729 80.72906869 51.27416992 79.15795898 C48.2200126 75.01324654 45.16632354 70.86819012 42.11328125 66.72265625 C41.47712891 65.85898437 40.84097656 64.9953125 40.18554688 64.10546875 C38.96665618 62.45062445 37.74789912 60.79568172 36.52929688 59.140625 C35.97951172 58.39425781 35.42972656 57.64789062 34.86328125 56.87890625 C34.38157471 56.2247876 33.89986816 55.57066895 33.40356445 54.89672852 C31.94431789 52.92475313 30.47190743 50.96254324 29 49 C28.67 75.4 28.34 101.8 28 129 C18.76 129 9.52 129 0 129 C0 86.43 0 43.86 0 0 Z " fill="#CFAB5C" transform="translate(615,610)"/>
<path d="M0 0 C29.01091294 -3.00096134 29.01091294 -3.00096134 36.72509766 1.63916016 C40.85386674 5.81454908 43.17893778 10.73575901 45.50390625 16.06347656 C48.6048189 22.14992849 52.92596684 27.53664242 57 33 C57.48839355 32.00033203 57.97678711 31.00066406 58.47998047 29.97070312 C71.98195666 3.10621874 71.98195666 3.10621874 81.13427734 -0.94464111 C91.3688995 -3.76406022 102.75163342 -1.93612351 113 0 C112.36661464 3.27638725 111.18560964 5.54334966 109.35131836 8.31860352 C108.79661362 9.16370987 108.24190887 10.00881622 107.6703949 10.87953186 C107.06631302 11.78682541 106.46223114 12.69411896 105.83984375 13.62890625 C105.21654678 14.57378403 104.59324982 15.5186618 103.95106506 16.49217224 C102.62802407 18.49533899 101.30221855 20.49668215 99.97387695 22.49633789 C97.96390895 25.52273618 95.96266386 28.55474885 93.96289062 31.58789062 C92.67243723 33.53943439 91.38143134 35.49061294 90.08984375 37.44140625 C89.46580658 38.38569489 88.84176941 39.32998352 88.19882202 40.30288696 C84.37872334 46.04569276 80.43642382 51.58250486 76.02954102 56.89428711 C74.73017362 58.98807377 74.73017362 58.98807377 75.56518555 61.39379883 C77.23372241 64.42453407 79.05707886 67.25593858 81.015625 70.109375 C81.41971085 70.70150787 81.82379669 71.29364075 82.24012756 71.90371704 C83.11538881 73.18546546 83.99274858 74.46578287 84.87197876 75.74481201 C87.23608267 79.18486985 89.58358109 82.63624557 91.93359375 86.0859375 C92.66953011 87.16489792 92.66953011 87.16489792 93.42033386 88.26565552 C98.60203631 95.86835038 103.72747989 103.50830361 108.83459473 111.16125488 C109.82031674 112.63776176 110.80705316 114.11359191 111.7947998 115.58874512 C113.17409522 117.64878318 114.55038989 119.71079153 115.92578125 121.7734375 C116.34038101 122.39175446 116.75498077 123.01007141 117.18214417 123.64712524 C120 127.88544123 120 127.88544123 120 129 C109.03778779 131.63905109 95.51110373 134.37688528 85 129 C72.39765495 118.54810277 64.42350633 101.30464727 57 87 C50.53920724 95.67445539 44.52593851 104.60563777 38.5625 113.625 C37.20085647 115.68130069 35.83851182 117.73712871 34.47483826 119.79208374 C33.63441299 121.05883166 32.79522297 122.32640018 31.95741272 123.59487915 C29.11162189 127.88837811 29.11162189 127.88837811 28 129 C25.47905924 129.08847743 22.98569107 129.11527301 20.46484375 129.09765625 C19.33496788 129.09553383 19.33496788 129.09553383 18.18226624 129.09336853 C15.7673044 129.08775376 13.35243399 129.07519883 10.9375 129.0625 C9.30403779 129.0574869 7.67057414 129.05292366 6.03710938 129.04882812 C2.02470415 129.03777954 -1.98763241 129.02050506 -6 129 C-4.74793856 125.63538471 -3.33023254 122.75581793 -1.31713867 119.78662109 C-0.50940254 118.58783829 -0.50940254 118.58783829 0.31465149 117.36483765 C0.89788681 116.5096756 1.48112213 115.65451355 2.08203125 114.7734375 C2.6920549 113.8711441 3.30207855 112.96885071 3.93058777 112.03921509 C5.88682047 109.14813135 7.84959382 106.26155575 9.8125 103.375 C11.09091711 101.4872651 12.36891589 99.59924683 13.64648438 97.7109375 C14.27634247 96.78122131 14.90620056 95.85150513 15.55514526 94.89361572 C16.82113993 93.02467843 18.08605658 91.15501044 19.34988403 89.28460693 C22.47849041 84.66600247 25.64141277 80.079292 28.88427734 75.54003906 C29.49534836 74.67561188 30.10641937 73.81118469 30.73600769 72.92056274 C31.89091491 71.29035652 33.05775769 69.66851852 34.23823547 68.05673218 C37.18381858 64.03824509 37.18381858 64.03824509 38.03833008 59.28222656 C36.84819311 56.66633181 35.5189229 54.43345166 33.875 52.0703125 C33.153125 51.01875977 32.43125 49.96720703 31.6875 48.88378906 C31.26855469 48.27974243 30.84960938 47.6756958 30.41796875 47.05334473 C27.54057825 42.88662765 24.71371651 38.68529996 21.875 34.4921875 C20.57956023 32.58063893 19.2839853 30.66918194 17.98828125 28.7578125 C17.33424316 27.79262695 16.68020508 26.82744141 16.00634766 25.83300781 C14.65595186 23.842086 13.30403501 21.85219513 11.95068359 19.86328125 C9.98369023 16.97161673 8.02254907 14.07606193 6.0625 11.1796875 C5.14863525 9.84077957 5.14863525 9.84077957 4.21630859 8.474823 C3.66152832 7.65281403 3.10674805 6.83080505 2.53515625 5.98388672 C1.79857788 4.89900467 1.79857788 4.89900467 1.04711914 3.79220581 C0 2 0 2 0 0 Z " fill="#CFAB5C" transform="translate(769,610)"/>
<path d="M0 0 C2.49474083 0.99423151 4.49200851 2.2836468 6.70141602 3.81347656 C7.59852295 4.4302124 8.49562988 5.04694824 9.41992188 5.68237305 C10.37390869 6.34696533 11.32789551 7.01155762 12.31079102 7.69628906 C13.79687866 8.7212146 13.79687866 8.7212146 15.31298828 9.7668457 C17.31341693 11.14702655 19.31221757 12.52957021 21.30932617 13.91455078 C23.62149498 15.5168612 25.93818087 17.11193807 28.26000977 18.70019531 C37.05540152 24.71725934 45.79918746 30.80825532 54.54370117 36.89892578 C60.94802889 41.35776982 67.3675349 45.79349252 73.80297852 50.20727539 C78.91177893 53.71279648 83.99524945 57.25349176 89.06079102 60.82128906 C87.68436709 64.95056083 84.86316218 66.3534553 81.37329102 68.63378906 C80.7603418 69.06626953 80.14739258 69.49875 79.51586914 69.94433594 C77.67407227 71.15332031 77.67407227 71.15332031 74.06079102 72.82128906 C68.65960084 71.6899195 64.56518737 68.71468968 60.10375977 65.63378906 C58.49661316 64.54329947 56.88900661 63.45348752 55.28100586 62.36425781 C54.00915436 61.49873291 54.00915436 61.49873291 52.71160889 60.61572266 C48.14074561 57.52154154 43.53144812 54.48571857 38.92407227 51.44628906 C37.97925995 50.82238281 37.03444763 50.19847656 36.06100464 49.55566406 C34.13707872 48.28531498 32.21293447 47.01529651 30.28857422 45.74560547 C28.32474945 44.44932653 26.36154534 43.15210687 24.39892578 41.85400391 C21.51284618 39.94517955 18.62492148 38.03917688 15.73657227 36.13378906 C14.4317968 35.26971436 14.4317968 35.26971436 13.10066223 34.38818359 C8.50311117 31.36018124 3.87561789 28.49118547 -0.93920898 25.82128906 C-11.26463832 32.68581845 -21.58163509 39.56206671 -31.84936523 46.51269531 C-32.66569427 47.06520966 -33.48202332 47.617724 -34.3230896 48.1869812 C-36.00918481 49.32825384 -37.69527071 50.46954023 -39.38134766 51.61083984 C-56.07355616 62.9048693 -72.84662289 74.06735378 -89.69314575 85.12966919 C-104.23635452 94.68272045 -118.68724542 104.36422337 -133.0953064 114.11968994 C-143.24355379 120.98852934 -153.41422073 127.8198847 -163.64624023 134.56347656 C-164.61371689 135.20112442 -165.58119354 135.83877228 -166.57798767 136.4957428 C-171.33867821 139.62994404 -176.10520573 142.75483896 -180.88037109 145.86694336 C-192.07713813 153.16838764 -192.07713813 153.16838764 -202.92358398 160.97363281 C-214.96624608 169.99984786 -221.68901774 172.58092651 -236.93920898 170.82128906 C-236.93920898 164.88128906 -236.93920898 158.94128906 -236.93920898 152.82128906 C-235.03655273 152.64726563 -233.13389648 152.47324219 -231.17358398 152.29394531 C-223.420591 151.0873884 -218.41488894 147.85383697 -212.18920898 143.25878906 C-210.55572618 142.1008772 -208.92221573 140.94300211 -207.28710938 139.78738403 C-205.60544062 138.59463015 -203.9311207 137.39209615 -202.25756836 136.18798828 C-197.05703789 132.46053601 -191.74172966 128.90128431 -186.43920898 125.32128906 C-184.35535751 123.90538466 -182.27202513 122.488716 -180.18920898 121.07128906 C-148.93920898 99.82128906 -148.93920898 99.82128906 -117.68920898 78.57128906 C-116.65820068 77.8702002 -115.62719238 77.16911133 -114.56494141 76.44677734 C-112.47917877 75.02846527 -110.39340401 73.61017103 -108.30761719 72.19189453 C-103.13635312 68.6755479 -97.96529226 65.15890325 -92.79467773 61.64160156 C-81.84719389 54.19508971 -70.89585999 46.7543028 -59.93920898 39.32128906 C-51.97217219 33.91620351 -44.00525687 28.51094288 -36.04345703 23.09814453 C-33.95874064 21.68154671 -31.87299189 20.26646677 -29.78613281 18.85302734 C-24.92570152 15.55666044 -20.08935767 12.2338857 -15.29858398 8.83691406 C-14.42210205 8.22058105 -13.54562012 7.60424805 -12.64257812 6.96923828 C-11.01182597 5.82003671 -9.3880985 4.6607754 -7.77294922 3.48974609 C-7.05824463 2.98813965 -6.34354004 2.4865332 -5.60717773 1.96972656 C-4.99124756 1.52806152 -4.37531738 1.08639648 -3.74072266 0.63134766 C-1.93920898 -0.17871094 -1.93920898 -0.17871094 0 0 Z " fill="#CFAB5C" transform="translate(340.939208984375,400.1787109375)"/>
<path d="M0 0 C4.66470546 1.20083052 8.56054571 4.19849561 12.5078125 6.86328125 C13.24949173 7.35870926 13.99117096 7.85413727 14.75532532 8.36457825 C17.21494155 10.00936883 19.6699788 11.6608603 22.125 13.3125 C23.85792805 14.4734823 25.59108671 15.63412046 27.32446289 16.79443359 C42.23781774 26.78543577 57.11583629 36.82938317 71.99194336 46.87573242 C81.03965027 52.98548288 90.09364468 59.08407008 99.1875 65.125 C113.77437031 74.81833834 128.27153727 84.64508523 142.78361511 94.44984436 C152.32856082 100.89841589 161.87709914 107.34165772 171.42684937 113.78311157 C174.18035144 115.64051777 176.93356666 117.49834862 179.68676758 119.35620117 C187.59070255 124.68829308 195.50195479 130.00778503 203.44238281 135.28540039 C205.92043015 136.94665721 208.37701875 138.63524763 210.828125 140.3359375 C211.56546875 140.84253906 212.3028125 141.34914063 213.0625 141.87109375 C214.54241017 142.88853199 216.01624513 143.91485452 217.484375 144.94921875 C218.2165625 145.44808594 218.94875 145.94695312 219.703125 146.4609375 C220.33895508 146.90228027 220.97478516 147.34362305 221.62988281 147.79833984 C224.79615288 149.51407923 224.79615288 149.51407923 232 151 C232 156.61 232 162.22 232 168 C220.78391035 168.89728717 217.02263963 167.91271899 207.90875244 161.3548584 C204.18450032 158.71133368 200.37387161 156.19353759 196.58203125 153.6484375 C194.83147923 152.46704795 193.0813267 151.28506624 191.33154297 150.10253906 C176.04137289 139.77499505 160.73893224 129.46754748 145.375 119.25 C135.29004279 112.5418425 125.23814059 105.78985171 115.23217773 98.96411133 C104.65711951 91.75426564 94.04862316 84.59413328 83.4375 77.4375 C82.49200287 76.79978668 81.54650574 76.16207336 80.57235718 75.5050354 C69.33109919 67.92470827 58.08300164 60.35581427 46.78198242 52.86474609 C40.8733854 48.94059808 35.00279043 44.96352969 29.14453125 40.96484375 C27.57696762 39.89687971 26.00934047 38.82900888 24.44165039 37.76123047 C21.36222625 35.66372048 18.28810286 33.55872503 15.21655273 31.44970703 C13.80603294 30.4883043 12.39531628 29.52719032 10.984375 28.56640625 C10.33761307 28.11933823 9.69085114 27.6722702 9.02449036 27.21165466 C4.82722788 24.30123145 4.82722788 24.30123145 0 23 C-2.12178197 23.9049122 -2.12178197 23.9049122 -4.19995117 25.43530273 C-5.01949783 25.99250504 -5.83904449 26.54970734 -6.6834259 27.12379456 C-8.00608711 28.05058266 -8.00608711 28.05058266 -9.35546875 28.99609375 C-10.28127243 29.62946152 -11.20707611 30.26282928 -12.16093445 30.91539001 C-14.12308749 32.25803845 -16.08187754 33.6056128 -18.03753662 34.95770264 C-22.72432594 38.18873581 -27.45255717 41.35775049 -32.17578125 44.53515625 C-34.03096436 45.7878705 -35.88578181 47.04112642 -37.74023438 48.29492188 C-38.65635498 48.91423584 -39.57247559 49.5335498 -40.51635742 50.17163086 C-42.40390075 51.44806699 -44.29126631 52.72476602 -46.1784668 54.00170898 C-48.96841653 55.88907698 -51.75952241 57.77472506 -54.55078125 59.66015625 C-55.38418533 60.22477066 -56.21758942 60.78938507 -57.07624817 61.37110901 C-59.37734678 62.92462508 -61.68593254 64.4658818 -64 66 C-64.74980637 66.50159637 -65.49961273 67.00319275 -66.2721405 67.51998901 C-67.33819267 68.21476852 -67.33819267 68.21476852 -68.42578125 68.92358398 C-69.05242676 69.33551498 -69.67907227 69.74744598 -70.32470703 70.17185974 C-72 71 -72 71 -74.63671875 70.5625 C-75.41660156 70.046875 -76.19648437 69.53125 -77 69 C-77.95519531 68.38125 -78.91039062 67.7625 -79.89453125 67.125 C-81.33892578 66.073125 -81.33892578 66.073125 -82.8125 65 C-84.27623047 63.948125 -84.27623047 63.948125 -85.76953125 62.875 C-86.50558594 62.25625 -87.24164062 61.6375 -88 61 C-88 60.34 -88 59.68 -88 59 C-86.47924805 57.7644043 -86.47924805 57.7644043 -84.26171875 56.32421875 C-83.4001416 55.75799805 -82.53856445 55.19177734 -81.65087891 54.60839844 C-80.67296387 53.97450195 -79.69504883 53.34060547 -78.6875 52.6875 C-76.50021925 51.25031036 -74.31402403 49.81156182 -72.12890625 48.37109375 C-71.21150665 47.76764633 -71.21150665 47.76764633 -70.27557373 47.15200806 C-60.83734535 40.93328544 -51.48956469 34.57879422 -42.125 28.25 C-29.66127448 19.82905642 -17.18342747 11.43097245 -4.65768433 3.10247803 C-3.10438678 2.06942464 -1.55215466 1.03476977 0 0 Z " fill="#CFAB5C" transform="translate(917,402)"/>
<path d="M0 0 C10.61269191 -2.34907689 23.80405909 -4.99552052 34 0 C45.48255027 9.28485398 52.48500235 25.05336768 59 38 C61.55382826 34.86931107 63.94154045 31.70803997 66.171875 28.33984375 C66.75453125 27.46263672 67.3371875 26.58542969 67.9375 25.68164062 C68.535625 24.77607422 69.13375 23.87050781 69.75 22.9375 C71.53937284 20.23958498 73.32795036 17.54457438 75.16015625 14.87548828 C77.08400466 11.99136396 77.08400466 11.99136396 78.62109375 8.66748047 C80.47476558 5.14394191 82.02158715 2.65613018 85 0 C90.90847843 -1.46578911 96.469368 -1.14508467 102.5 -0.75 C104.10136214 -0.6897302 105.70294253 -0.63499053 107.3046875 -0.5859375 C111.20855932 -0.45440543 115.10185989 -0.24792476 119 0 C117.73006032 3.40852352 116.27134532 6.35073702 114.26953125 9.38452148 C113.44727051 10.63754311 113.44727051 10.63754311 112.60839844 11.9158783 C112.01575195 12.8085994 111.42310547 13.7013205 110.8125 14.62109375 C110.19536133 15.55744156 109.57822266 16.49378937 108.94238281 17.45851135 C107.63317576 19.44275768 106.32175873 21.42554738 105.00830078 23.40698242 C103.03006487 26.39213224 101.05937929 29.38215164 99.08984375 32.37304688 C92.90189666 41.7486205 86.65890167 51.05932312 80.05078125 60.14477539 C79.37402344 61.08699951 78.69726562 62.02922363 78 63 C76.89543457 64.24535522 76.89543457 64.24535522 75.76855469 65.51586914 C72.95933788 71.05015036 73.39649245 76.59123037 73.390625 82.7109375 C73.37562994 84.04759716 73.35890001 85.38423838 73.34051514 86.72085571 C73.29697691 90.2224822 73.2768731 93.72385881 73.26177979 97.22570801 C73.24215938 100.80556779 73.20040946 104.3851663 73.16015625 107.96484375 C73.08292389 114.97672888 73.04242303 121.98747234 73 129 C63.76 129 54.52 129 45 129 C45.07863281 124.81699219 45.15726563 120.63398437 45.23828125 116.32421875 C45.26459451 112.93096424 45.27765549 109.53821672 45.28195953 106.14488983 C45.29001338 102.59349301 45.31988986 99.04575156 45.40795898 95.49536133 C45.82358789 77.91595458 44.77251696 65.14170744 32.9133606 51.32974243 C29.41916899 47.0751516 26.48447715 42.43565498 23.45703125 37.84375 C22.18887416 35.9582717 20.91869085 34.07415464 19.64648438 32.19140625 C18.36848155 30.29427624 17.09048684 28.39714077 15.8125 26.5 C14.49159523 24.54032497 13.17063193 22.58068938 11.84960938 20.62109375 C9.46034837 17.07640424 7.07122025 13.53162552 4.68286133 9.98632812 C4.21133133 9.28640747 3.73980133 8.58648682 3.25398254 7.86535645 C0 3.02490843 0 3.02490843 0 0 Z " fill="#CFAB5C" transform="translate(467,610)"/>
<path d="M0 0 C9.24 0 18.48 0 28 0 C28 34.32 28 68.64 28 104 C45.49 104 62.98 104 81 104 C81 112.25 81 120.5 81 129 C53.94 129 26.88 129 -1 129 C-1.04030303 96.94117534 -1.04030303 96.94117534 -1.04882812 83.54882812 C-1.05477115 74.28685963 -1.06177292 65.0249002 -1.07543945 55.76293945 C-1.08538619 49.01872849 -1.0918534 42.27452485 -1.09408849 35.53030676 C-1.09539562 31.95713134 -1.09848158 28.3839769 -1.10573006 24.81080818 C-1.11374372 20.82837649 -1.11399114 16.84596559 -1.11352539 12.86352539 C-1.11712067 11.67022614 -1.12071594 10.47692688 -1.12442017 9.24746704 C-1.1230455 8.16908066 -1.12167084 7.09069427 -1.12025452 5.97962952 C-1.12117631 5.03663529 -1.1220981 4.09364107 -1.12304783 3.12207127 C-1 1 -1 1 0 0 Z " fill="#CFAB5C" transform="translate(364,610)"/>
<path d="M0 0 C4.92723217 2.86162359 8.0591228 6.80011694 9.5625 12.3125 C10.2719854 17.91313471 9.74205399 22.55729804 6.96875 27.51953125 C3.6257438 31.78186415 -1.18108413 34.27172966 -6.4375 35.3125 C-12.78182601 35.80052508 -18.16697508 34.91159265 -23.20703125 30.90625 C-27.56963299 26.40565842 -29.27516257 21.54816699 -29.4375 15.3125 C-28.6556028 8.56175378 -25.52311557 4.83709456 -20.375 0.625 C-14.6317074 -3.26561757 -6.12412943 -2.85485733 0 0 Z M-19.8125 9.4375 C-22.0778207 13.44537508 -22.37884471 16.8114484 -21.4375 21.3125 C-19.71017979 24.37833403 -17.63294885 26.71477558 -14.4375 28.3125 C-10.49629378 28.94662483 -6.9484147 29.06935376 -3.32421875 27.25390625 C-0.00511616 24.71819434 1.93421067 22.47963247 2.6875 18.3125 C2.84772778 14.32206528 1.81110397 11.64663692 -0.4375 8.3125 C-6.56612384 1.96499674 -13.9090893 4.15550095 -19.8125 9.4375 Z " fill="#494949" transform="translate(889.4375,848.6875)"/>
<path d="M0 0 C3.17625 -0.061875 6.3525 -0.12375 9.625 -0.1875 C11.1092749 -0.22846802 11.1092749 -0.22846802 12.62353516 -0.27026367 C18.73231763 -0.327684 22.96543426 0.48863525 27.8125 4.5 C30.66599762 8.10441805 30.48791854 12.62585311 30 17 C28.38433073 20.46214844 26.73618508 22.26381492 24 25 C27.465 30.445 27.465 30.445 31 36 C28.03 36 25.06 36 22 36 C21.63261719 35.04287109 21.63261719 35.04287109 21.2578125 34.06640625 C20.04216542 31.37940702 18.92587824 29.2433307 17 27 C13.4667345 25.86719732 10.77487259 25.94966837 7 26 C7 29.3 7 32.6 7 36 C4.69 36 2.38 36 0 36 C0 24.12 0 12.24 0 0 Z M7 6 C7 10.29 7 14.58 7 19 C14.75601611 19.82170731 14.75601611 19.82170731 21.89453125 17.67578125 C23.62064064 15.05917019 23.38086549 13.04692394 23 10 C21.06574222 7.19532622 19.25168913 6.63872465 16 6 C14.41788427 5.93451508 12.83329919 5.91421619 11.25 5.9375 C9.8475 5.958125 8.445 5.97875 7 6 Z " fill="#494949" transform="translate(297,847)"/>
<path d="M0 0 C3.17625 -0.061875 6.3525 -0.12375 9.625 -0.1875 C11.1092749 -0.22846802 11.1092749 -0.22846802 12.62353516 -0.27026367 C17.84272181 -0.31932213 21.51419855 0.02114748 26 3 C28.80168958 6.24406162 29.9043675 8.23494 30.4375 12.5 C29.76954092 17.84367262 27.8500276 21.33330704 24 25 C24.433125 25.62648438 24.86625 26.25296875 25.3125 26.8984375 C25.869375 27.71570313 26.42625 28.53296875 27 29.375 C27.556875 30.18710937 28.11375 30.99921875 28.6875 31.8359375 C30 34 30 34 30 36 C24.8301455 36.70099722 24.8301455 36.70099722 22 36 C19.36841056 33.26214685 17 29.89044106 17 26 C13.7 26 10.4 26 7 26 C7 29.3 7 32.6 7 36 C4.69 36 2.38 36 0 36 C0 24.12 0 12.24 0 0 Z M7 6 C7 10.29 7 14.58 7 19 C14.75601611 19.82170731 14.75601611 19.82170731 21.89453125 17.67578125 C23.62064064 15.05917019 23.38086549 13.04692394 23 10 C21.06574222 7.19532622 19.25168913 6.63872465 16 6 C14.41788427 5.93451508 12.83329919 5.91421619 11.25 5.9375 C9.8475 5.958125 8.445 5.97875 7 6 Z " fill="#494949" transform="translate(817,847)"/>
<path d="M0 0 C8.91 0 17.82 0 27 0 C27 1.98 27 3.96 27 6 C20.4 6 13.8 6 7 6 C7 8.97 7 11.94 7 15 C12.94 15 18.88 15 25 15 C25 16.98 25 18.96 25 21 C19.06 21 13.12 21 7 21 C7 23.97 7 26.94 7 30 C13.6 30 20.2 30 27 30 C27 31.98 27 33.96 27 36 C18.09 36 9.18 36 0 36 C0 24.12 0 12.24 0 0 Z " fill="#494949" transform="translate(703,847)"/>
<path d="M0 0 C1.91796875 0.81640625 1.91796875 0.81640625 4.66796875 2.31640625 C4.06613126 4.33686067 3.39490779 6.33751664 2.66796875 8.31640625 C0.66796875 9.31640625 0.66796875 9.31640625 -1.3203125 8.72265625 C-2.08730469 8.42359375 -2.85429688 8.12453125 -3.64453125 7.81640625 C-7.26217907 6.52688985 -9.59069676 5.98883595 -13.33203125 7.31640625 C-13.3646086 9.2465265 -13.3646086 9.2465265 -12.33203125 11.31640625 C-10.01885619 12.499616 -7.88101315 13.43583798 -5.45703125 14.31640625 C2.52316614 17.25053943 2.52316614 17.25053943 4.66796875 21.31640625 C5.53854784 28.17221659 5.53854784 28.17221659 2.48046875 32.19140625 C-2.44781309 35.91499697 -6.1353891 36.92591203 -12.33203125 36.31640625 C-21.53554884 33.51112987 -21.53554884 33.51112987 -24.33203125 29.31640625 C-23.34203125 27.66640625 -22.35203125 26.01640625 -21.33203125 24.31640625 C-20.76355469 24.60515625 -20.19507813 24.89390625 -19.609375 25.19140625 C-14.54559413 27.62607886 -10.94602092 28.79419261 -5.33203125 28.31640625 C-5.00203125 26.66640625 -4.67203125 25.01640625 -4.33203125 23.31640625 C-5.2240625 23.001875 -6.11609375 22.68734375 -7.03515625 22.36328125 C-8.205625 21.9353125 -9.37609375 21.50734375 -10.58203125 21.06640625 C-11.7421875 20.64875 -12.90234375 20.23109375 -14.09765625 19.80078125 C-17.3253007 18.31949515 -19.11023736 17.05378389 -21.33203125 14.31640625 C-22.2932801 11.08935654 -22.47453737 8.98143479 -21.76953125 5.69140625 C-17.08604792 -2.04652273 -8.04533574 -2.358348 0 0 Z " fill="#494949" transform="translate(557.33203125,847.68359375)"/>
<path d="M0 0 C8.58 0 17.16 0 26 0 C26 1.98 26 3.96 26 6 C19.73 6 13.46 6 7 6 C7 8.97 7 11.94 7 15 C12.61 15 18.22 15 24 15 C24 16.98 24 18.96 24 21 C18.39 21 12.78 21 7 21 C7 23.97 7 26.94 7 30 C13.6 30 20.2 30 27 30 C27 31.98 27 33.96 27 36 C18.09 36 9.18 36 0 36 C0 24.12 0 12.24 0 0 Z " fill="#494949" transform="translate(494,847)"/>
<path d="M0 0 C8.58 0 17.16 0 26 0 C26 1.98 26 3.96 26 6 C19.73 6 13.46 6 7 6 C7 8.97 7 11.94 7 15 C12.61 15 18.22 15 24 15 C24 16.98 24 18.96 24 21 C18.39 21 12.78 21 7 21 C7 23.97 7 26.94 7 30 C13.6 30 20.2 30 27 30 C27 31.98 27 33.96 27 36 C18.09 36 9.18 36 0 36 C0 24.12 0 12.24 0 0 Z " fill="#494949" transform="translate(344,847)"/>
<path d="M0 0 C0 1.32 0 2.64 0 4 C-1.5625 5.1875 -1.5625 5.1875 -4 6 C-5.72254541 5.25248029 -7.4436568 4.49958967 -9.13671875 3.6875 C-12.348235 2.50253803 -14.77402525 3.1038959 -18 4 C-20.70567626 5.82339052 -22.53728718 7.07457436 -24 10 C-24.55512815 14.63213493 -24.6364242 17.98172127 -22.125 22 C-19.13916788 24.81019493 -17.55834622 25.13812265 -13.5625 25.125 C-12.78003906 25.12757813 -11.99757813 25.13015625 -11.19140625 25.1328125 C-8.82104653 25.08382548 -8.82104653 25.08382548 -6 24 C-5.67 20.7 -5.34 17.4 -5 14 C-3.02 14 -1.04 14 1 14 C1.10794277 16.26979665 1.18556176 18.54105196 1.25 20.8125 C1.29640625 22.07707031 1.3428125 23.34164062 1.390625 24.64453125 C1 28 1 28 -0.80859375 29.875 C-7.35405129 33.23523488 -14.01919424 34.10673105 -21.0625 31.9375 C-25.62183676 30.02523448 -28.53704116 27.27608163 -31 23 C-33.28492527 17.11753282 -33.52756414 11.92893885 -31.18359375 6.04296875 C-28.66091812 1.68864744 -24.93598383 -0.84887448 -20.6875 -3.375 C-12.71516269 -5.22903193 -6.97518289 -4.13344171 0 0 Z " fill="#494949" transform="translate(799,851)"/>
<path d="M0 0 C2.31 0 4.62 0 7 0 C11.33556805 8.29473629 15.25563219 16.70779241 18.9375 25.3125 C19.3389624 26.24989014 19.7404248 27.18728027 20.15405273 28.15307617 C23 34.86124789 23 34.86124789 23 36 C20.36 36 17.72 36 15 36 C14.01 33.69 13.02 31.38 12 29 C6.39 28.67 0.78 28.34 -5 28 C-5.99 31.465 -5.99 31.465 -7 35 C-8 36 -8 36 -11.5625 36.0625 C-12.696875 36.041875 -13.83125 36.02125 -15 36 C-14.34493863 31.57000873 -12.70093699 27.76258324 -10.83984375 23.73046875 C-10.53051407 23.04946609 -10.22118439 22.36846344 -9.90248108 21.66682434 C-8.91906176 19.50477304 -7.92840527 17.34612904 -6.9375 15.1875 C-6.2670967 13.71701626 -5.59716957 12.24631534 -4.92773438 10.77539062 C-3.29065903 7.18105558 -1.64708751 3.58975736 0 0 Z M3 9 C2.16209211 10.78953185 1.32980604 12.58169695 0.5 14.375 C0.0359375 15.37273438 -0.428125 16.37046875 -0.90625 17.3984375 C-2.1291873 19.83692626 -2.1291873 19.83692626 -2 22 C1.63 22 5.26 22 9 22 C8.566875 20.5975 8.13375 19.195 7.6875 17.75 C7.44386719 16.96109375 7.20023438 16.1721875 6.94921875 15.359375 C5.94891677 12.87302768 4.69142391 11.0657166 3 9 Z " fill="#494949" transform="translate(628,847)"/>
<path d="M0 0 C1.134375 0.020625 2.26875 0.04125 3.4375 0.0625 C7.31683619 8.28184354 11.13872737 16.52706298 14.875 24.8125 C15.22884766 25.5864209 15.58269531 26.3603418 15.94726562 27.15771484 C18.4375 32.71636177 18.4375 32.71636177 18.4375 36.0625 C16.1275 36.0625 13.8175 36.0625 11.4375 36.0625 C8.4375 30.3125 8.4375 30.3125 8.4375 28.0625 C0.0225 28.5575 0.0225 28.5575 -8.5625 29.0625 C-10.0475 32.5275 -10.0475 32.5275 -11.5625 36.0625 C-14.2025 36.0625 -16.8425 36.0625 -19.5625 36.0625 C-18.9765625 34.6953125 -18.390625 33.328125 -17.8046875 31.9609375 C-17.24104492 30.64561035 -17.24104492 30.64561035 -16.66601562 29.30371094 C-15.8447151 27.38756067 -15.02309875 25.47154574 -14.20117188 23.55566406 C-12.3482015 19.23547094 -10.49704948 14.91465269 -8.6640625 10.5859375 C-8.38965332 9.93963379 -8.11524414 9.29333008 -7.83251953 8.62744141 C-7.105468 6.91377588 -6.38078435 5.1991063 -5.65625 3.484375 C-4.11526669 0.07219766 -4.11526669 0.07219766 0 0 Z M-0.5625 9.0625 C-1.40040789 10.85203185 -2.23269396 12.64419695 -3.0625 14.4375 C-3.5265625 15.43523438 -3.990625 16.43296875 -4.46875 17.4609375 C-5.6916873 19.89942626 -5.6916873 19.89942626 -5.5625 22.0625 C-1.9325 22.0625 1.6975 22.0625 5.4375 22.0625 C3.7875 17.7725 2.1375 13.4825 0.4375 9.0625 C0.1075 9.0625 -0.2225 9.0625 -0.5625 9.0625 Z " fill="#494949" transform="translate(401.5625,846.9375)"/>
<path d="M0 0 C3.01125 -0.061875 6.0225 -0.12375 9.125 -0.1875 C10.06230957 -0.21481201 10.99961914 -0.24212402 11.96533203 -0.27026367 C17.93179662 -0.32935645 22.08443026 0.5871147 26.8125 4.5 C29.57352978 7.98761657 29.28744224 11.76022695 29 16 C27.40791829 20.13941246 25.87579706 22.76848048 22 25 C18.71320056 26.05932167 15.68898506 26.1034403 12.25 26.0625 C11.26515625 26.05347656 10.2803125 26.04445313 9.265625 26.03515625 C8.51796875 26.02355469 7.7703125 26.01195312 7 26 C7 29.3 7 32.6 7 36 C4.69 36 2.38 36 0 36 C0 24.12 0 12.24 0 0 Z M7 6 C7 10.29 7 14.58 7 19 C8.918125 19.061875 10.83625 19.12375 12.8125 19.1875 C13.89144531 19.22230469 14.97039063 19.25710938 16.08203125 19.29296875 C18.98067151 19.24508462 18.98067151 19.24508462 20.86328125 17.67578125 C22.63321345 15.06649976 22.38278316 13.0622653 22 10 C20.60955385 7.98385308 19.56317412 7.22944131 17.3125 6.3125 C13.86122833 5.84611194 10.48161204 5.94197313 7 6 Z " fill="#494949" transform="translate(963,847)"/>
<path d="M0 0 C2.31 0 4.62 0 7 0 C7.01981934 0.64026123 7.03963867 1.28052246 7.06005859 1.94018555 C7.15563601 4.8563528 7.26518214 7.77183572 7.375 10.6875 C7.4059375 11.69490234 7.436875 12.70230469 7.46875 13.74023438 C7.50742187 14.71669922 7.54609375 15.69316406 7.5859375 16.69921875 C7.6173584 17.59471436 7.6487793 18.49020996 7.68115234 19.4128418 C8.16992298 23.37877018 9.16342174 26.16342174 12 29 C17.46815165 29.74286013 17.46815165 29.74286013 22.09130859 27.33740234 C24.47077199 24.42348797 24.53333813 22.8664315 24.609375 19.140625 C24.64160156 18.02558594 24.67382812 16.91054688 24.70703125 15.76171875 C24.72121094 14.60285156 24.73539063 13.44398438 24.75 12.25 C24.79447266 10.48849609 24.79447266 10.48849609 24.83984375 8.69140625 C24.91050727 5.79420178 24.96322266 2.89780045 25 0 C27.31 0 29.62 0 32 0 C32.0872253 4.39570794 32.14046869 8.79119271 32.1875 13.1875 C32.21263672 14.43337891 32.23777344 15.67925781 32.26367188 16.96289062 C32.27333984 18.16494141 32.28300781 19.36699219 32.29296875 20.60546875 C32.3086792 21.71043701 32.32438965 22.81540527 32.34057617 23.95385742 C31.82076301 28.60311107 29.94648131 31.12632494 26.5625 34.25 C22.11828071 37.28507659 18.35631384 37.36313992 13 37 C8.42374695 35.44872778 4.93028279 33.90704372 2 30 C-0.38405231 23.7132286 -0.2325151 17.72430077 -0.125 11.0625 C-0.11597656 9.99708984 -0.10695313 8.93167969 -0.09765625 7.83398438 C-0.07423414 5.22241966 -0.04143452 2.61133063 0 0 Z " fill="#494949" transform="translate(913,847)"/>
<path d="M0 0 C9.9 0 19.8 0 30 0 C30 1.98 30 3.96 30 6 C26.04 6 22.08 6 18 6 C18 15.9 18 25.8 18 36 C15.69 36 13.38 36 11 36 C11 26.1 11 16.2 11 6 C7.37 6 3.74 6 0 6 C0 4.02 0 2.04 0 0 Z " fill="#494949" transform="translate(660,847)"/>
<path d="M0 0 C9.57 0 19.14 0 29 0 C29 1.98 29 3.96 29 6 C25.37 6 21.74 6 18 6 C18 15.9 18 25.8 18 36 C15.69 36 13.38 36 11 36 C11 26.1 11 16.2 11 6 C7.37 6 3.74 6 0 6 C0 4.02 0 2.04 0 0 Z " fill="#494949" transform="translate(574,847)"/>
<path d="M0 0 C2.31 0 4.62 0 7 0 C7 9.9 7 19.8 7 30 C11.95 30 16.9 30 22 30 C22 31.98 22 33.96 22 36 C14.74 36 7.48 36 0 36 C0 24.12 0 12.24 0 0 Z " fill="#494949" transform="translate(434,847)"/>
</svg>
